<mxfile host="app.diagrams.net" agent="Mozilla/5.0 (Windows NT 10.0; Win64; x64) AppleWebKit/537.36 (KHTML, like Gecko) Chrome/130.0.0.0 Safari/537.36" version="24.8.3">
  <diagram name="Page-1" id="_K8HTm0K3EjRv3cY7NTd">
    <mxGraphModel dx="1171" dy="634" grid="1" gridSize="10" guides="1" tooltips="1" connect="1" arrows="1" fold="1" page="1" pageScale="1" pageWidth="827" pageHeight="1169" math="0" shadow="0">
      <root>
        <mxCell id="0" />
        <mxCell id="1" parent="0" />
        <mxCell id="L3wB25ttGsEHEg0RLgfc-32" value="" style="endArrow=none;html=1;rounded=0;" edge="1" parent="1">
          <mxGeometry width="50" height="50" relative="1" as="geometry">
            <mxPoint x="440" y="600" as="sourcePoint" />
            <mxPoint x="724" y="520" as="targetPoint" />
            <Array as="points">
              <mxPoint x="724" y="600" />
            </Array>
          </mxGeometry>
        </mxCell>
        <mxCell id="L3wB25ttGsEHEg0RLgfc-37" style="edgeStyle=orthogonalEdgeStyle;rounded=0;orthogonalLoop=1;jettySize=auto;html=1;entryX=0.5;entryY=0;entryDx=0;entryDy=0;" edge="1" parent="1" source="L3wB25ttGsEHEg0RLgfc-2" target="L3wB25ttGsEHEg0RLgfc-4">
          <mxGeometry relative="1" as="geometry" />
        </mxCell>
        <mxCell id="L3wB25ttGsEHEg0RLgfc-2" value="&lt;font style=&quot;font-size: 23px;&quot;&gt;START&lt;/font&gt;" style="ellipse;whiteSpace=wrap;html=1;" vertex="1" parent="1">
          <mxGeometry x="347" width="106" height="70" as="geometry" />
        </mxCell>
        <mxCell id="L3wB25ttGsEHEg0RLgfc-4" value="&lt;font style=&quot;font-size: 14px;&quot;&gt;Input first number A&lt;/font&gt;" style="shape=parallelogram;perimeter=parallelogramPerimeter;whiteSpace=wrap;html=1;fixedSize=1;align=center;" vertex="1" parent="1">
          <mxGeometry x="320" y="120" width="160" height="40" as="geometry" />
        </mxCell>
        <mxCell id="L3wB25ttGsEHEg0RLgfc-10" value="Input second number B" style="shape=parallelogram;perimeter=parallelogramPerimeter;whiteSpace=wrap;html=1;fixedSize=1;" vertex="1" parent="1">
          <mxGeometry x="320" y="200" width="160" height="40" as="geometry" />
        </mxCell>
        <mxCell id="L3wB25ttGsEHEg0RLgfc-11" value="" style="endArrow=classic;html=1;rounded=0;exitX=0.5;exitY=1;exitDx=0;exitDy=0;entryX=0.5;entryY=0;entryDx=0;entryDy=0;" edge="1" parent="1" source="L3wB25ttGsEHEg0RLgfc-4" target="L3wB25ttGsEHEg0RLgfc-10">
          <mxGeometry width="50" height="50" relative="1" as="geometry">
            <mxPoint x="406.5" y="160" as="sourcePoint" />
            <mxPoint x="407" y="200" as="targetPoint" />
          </mxGeometry>
        </mxCell>
        <mxCell id="L3wB25ttGsEHEg0RLgfc-12" value="" style="endArrow=classic;html=1;rounded=0;" edge="1" parent="1">
          <mxGeometry width="50" height="50" relative="1" as="geometry">
            <mxPoint x="399.5" y="240" as="sourcePoint" />
            <mxPoint x="399.5" y="280" as="targetPoint" />
          </mxGeometry>
        </mxCell>
        <mxCell id="L3wB25ttGsEHEg0RLgfc-13" value="&lt;font style=&quot;font-size: 14px;&quot;&gt;Input third number C&lt;/font&gt;" style="shape=parallelogram;perimeter=parallelogramPerimeter;whiteSpace=wrap;html=1;fixedSize=1;" vertex="1" parent="1">
          <mxGeometry x="320" y="280" width="160" height="40" as="geometry" />
        </mxCell>
        <mxCell id="L3wB25ttGsEHEg0RLgfc-14" value="" style="endArrow=none;html=1;rounded=0;" edge="1" parent="1">
          <mxGeometry width="50" height="50" relative="1" as="geometry">
            <mxPoint x="399.5" y="320" as="sourcePoint" />
            <mxPoint x="400" y="330" as="targetPoint" />
          </mxGeometry>
        </mxCell>
        <mxCell id="L3wB25ttGsEHEg0RLgfc-15" value="" style="endArrow=none;html=1;rounded=0;" edge="1" parent="1">
          <mxGeometry width="50" height="50" relative="1" as="geometry">
            <mxPoint x="120" y="330" as="sourcePoint" />
            <mxPoint x="400" y="330" as="targetPoint" />
          </mxGeometry>
        </mxCell>
        <mxCell id="L3wB25ttGsEHEg0RLgfc-16" value="" style="endArrow=classic;html=1;rounded=0;" edge="1" parent="1">
          <mxGeometry width="50" height="50" relative="1" as="geometry">
            <mxPoint x="120" y="330" as="sourcePoint" />
            <mxPoint x="120" y="360" as="targetPoint" />
          </mxGeometry>
        </mxCell>
        <mxCell id="L3wB25ttGsEHEg0RLgfc-17" value="&lt;font style=&quot;font-size: 17px;&quot;&gt;a &amp;gt;= b and a &amp;gt;= c&lt;/font&gt;" style="rounded=0;whiteSpace=wrap;html=1;" vertex="1" parent="1">
          <mxGeometry x="10" y="360" width="210" height="40" as="geometry" />
        </mxCell>
        <mxCell id="L3wB25ttGsEHEg0RLgfc-18" value="&lt;font style=&quot;font-size: 17px;&quot;&gt;b &amp;gt;= a and b &amp;gt;= c&lt;/font&gt;" style="rounded=0;whiteSpace=wrap;html=1;" vertex="1" parent="1">
          <mxGeometry x="302" y="360" width="210" height="40" as="geometry" />
        </mxCell>
        <mxCell id="L3wB25ttGsEHEg0RLgfc-23" style="edgeStyle=orthogonalEdgeStyle;rounded=0;orthogonalLoop=1;jettySize=auto;html=1;exitX=1;exitY=1;exitDx=0;exitDy=0;" edge="1" parent="1" source="L3wB25ttGsEHEg0RLgfc-19">
          <mxGeometry relative="1" as="geometry">
            <mxPoint x="210.1111111111111" y="500.44444444444434" as="targetPoint" />
          </mxGeometry>
        </mxCell>
        <mxCell id="L3wB25ttGsEHEg0RLgfc-19" value="&lt;font style=&quot;font-size: 17px;&quot;&gt;Output a &quot; is the greatest&quot;&lt;/font&gt;" style="rounded=0;whiteSpace=wrap;html=1;" vertex="1" parent="1">
          <mxGeometry x="10" y="460" width="220" height="60" as="geometry" />
        </mxCell>
        <mxCell id="L3wB25ttGsEHEg0RLgfc-20" value="" style="endArrow=classic;html=1;rounded=0;" edge="1" parent="1">
          <mxGeometry width="50" height="50" relative="1" as="geometry">
            <mxPoint x="220" y="380" as="sourcePoint" />
            <mxPoint x="300" y="380" as="targetPoint" />
          </mxGeometry>
        </mxCell>
        <mxCell id="L3wB25ttGsEHEg0RLgfc-24" value="&lt;font style=&quot;font-size: 17px;&quot;&gt;Output b &quot; is greatest&quot;&lt;/font&gt;" style="rounded=0;whiteSpace=wrap;html=1;" vertex="1" parent="1">
          <mxGeometry x="304" y="460" width="220" height="60" as="geometry" />
        </mxCell>
        <mxCell id="L3wB25ttGsEHEg0RLgfc-25" value="&lt;font style=&quot;font-size: 17px;&quot;&gt;Output c &quot; is greatest&quot;&lt;/font&gt;" style="rounded=0;whiteSpace=wrap;html=1;" vertex="1" parent="1">
          <mxGeometry x="600" y="460" width="220" height="60" as="geometry" />
        </mxCell>
        <mxCell id="L3wB25ttGsEHEg0RLgfc-26" value="" style="endArrow=classic;html=1;rounded=0;exitX=1;exitY=0.5;exitDx=0;exitDy=0;entryX=0.364;entryY=0;entryDx=0;entryDy=0;entryPerimeter=0;" edge="1" parent="1" source="L3wB25ttGsEHEg0RLgfc-18" target="L3wB25ttGsEHEg0RLgfc-25">
          <mxGeometry width="50" height="50" relative="1" as="geometry">
            <mxPoint x="530" y="360" as="sourcePoint" />
            <mxPoint x="580" y="310" as="targetPoint" />
            <Array as="points">
              <mxPoint x="680" y="380" />
            </Array>
          </mxGeometry>
        </mxCell>
        <mxCell id="L3wB25ttGsEHEg0RLgfc-27" value="" style="endArrow=classic;html=1;rounded=0;" edge="1" parent="1">
          <mxGeometry width="50" height="50" relative="1" as="geometry">
            <mxPoint x="230" y="489.44" as="sourcePoint" />
            <mxPoint x="300" y="489.44" as="targetPoint" />
            <Array as="points">
              <mxPoint x="280" y="489.44" />
            </Array>
          </mxGeometry>
        </mxCell>
        <mxCell id="L3wB25ttGsEHEg0RLgfc-28" value="" style="endArrow=classic;html=1;rounded=0;" edge="1" parent="1">
          <mxGeometry width="50" height="50" relative="1" as="geometry">
            <mxPoint x="524" y="489.44" as="sourcePoint" />
            <mxPoint x="594" y="489.44" as="targetPoint" />
            <Array as="points">
              <mxPoint x="574" y="489.44" />
            </Array>
          </mxGeometry>
        </mxCell>
        <mxCell id="L3wB25ttGsEHEg0RLgfc-29" value="" style="endArrow=classic;html=1;rounded=0;entryX=0.5;entryY=0;entryDx=0;entryDy=0;" edge="1" parent="1" target="L3wB25ttGsEHEg0RLgfc-19">
          <mxGeometry width="50" height="50" relative="1" as="geometry">
            <mxPoint x="120" y="401" as="sourcePoint" />
            <mxPoint x="170" y="355" as="targetPoint" />
          </mxGeometry>
        </mxCell>
        <mxCell id="L3wB25ttGsEHEg0RLgfc-30" value="" style="endArrow=classic;html=1;rounded=0;entryX=0.5;entryY=0;entryDx=0;entryDy=0;" edge="1" parent="1">
          <mxGeometry width="50" height="50" relative="1" as="geometry">
            <mxPoint x="412" y="401" as="sourcePoint" />
            <mxPoint x="412" y="460" as="targetPoint" />
          </mxGeometry>
        </mxCell>
        <mxCell id="L3wB25ttGsEHEg0RLgfc-31" value="" style="endArrow=none;html=1;rounded=0;" edge="1" parent="1">
          <mxGeometry width="50" height="50" relative="1" as="geometry">
            <mxPoint x="120" y="520" as="sourcePoint" />
            <mxPoint x="360" y="600" as="targetPoint" />
            <Array as="points">
              <mxPoint x="120" y="600" />
            </Array>
          </mxGeometry>
        </mxCell>
        <mxCell id="L3wB25ttGsEHEg0RLgfc-33" value="" style="ellipse;whiteSpace=wrap;html=1;aspect=fixed;" vertex="1" parent="1">
          <mxGeometry x="360" y="560" width="80" height="80" as="geometry" />
        </mxCell>
        <mxCell id="L3wB25ttGsEHEg0RLgfc-34" value="" style="endArrow=none;html=1;rounded=0;" edge="1" parent="1">
          <mxGeometry width="50" height="50" relative="1" as="geometry">
            <mxPoint x="399.44" y="560" as="sourcePoint" />
            <mxPoint x="399.44" y="520" as="targetPoint" />
          </mxGeometry>
        </mxCell>
        <mxCell id="L3wB25ttGsEHEg0RLgfc-35" value="" style="endArrow=none;html=1;rounded=0;" edge="1" parent="1">
          <mxGeometry width="50" height="50" relative="1" as="geometry">
            <mxPoint x="400" y="720" as="sourcePoint" />
            <mxPoint x="400" y="640" as="targetPoint" />
          </mxGeometry>
        </mxCell>
        <mxCell id="L3wB25ttGsEHEg0RLgfc-36" value="&lt;b&gt;&lt;font style=&quot;font-size: 23px;&quot;&gt;STOP&lt;/font&gt;&lt;/b&gt;" style="ellipse;whiteSpace=wrap;html=1;" vertex="1" parent="1">
          <mxGeometry x="340" y="720" width="120" height="80" as="geometry" />
        </mxCell>
        <mxCell id="L3wB25ttGsEHEg0RLgfc-38" value="&lt;b&gt;&lt;font style=&quot;font-size: 15px;&quot;&gt;Y&lt;/font&gt;&lt;/b&gt;" style="text;html=1;align=center;verticalAlign=middle;resizable=0;points=[];autosize=1;strokeColor=none;fillColor=none;" vertex="1" parent="1">
          <mxGeometry x="85" y="410" width="30" height="30" as="geometry" />
        </mxCell>
        <mxCell id="L3wB25ttGsEHEg0RLgfc-39" value="&lt;b&gt;&lt;font style=&quot;font-size: 15px;&quot;&gt;Y&lt;/font&gt;&lt;/b&gt;" style="text;html=1;align=center;verticalAlign=middle;resizable=0;points=[];autosize=1;strokeColor=none;fillColor=none;" vertex="1" parent="1">
          <mxGeometry x="385" y="408" width="30" height="30" as="geometry" />
        </mxCell>
        <mxCell id="L3wB25ttGsEHEg0RLgfc-40" value="&lt;font style=&quot;font-size: 15px;&quot;&gt;&lt;b&gt;N&lt;/b&gt;&lt;/font&gt;" style="text;html=1;align=center;verticalAlign=middle;resizable=0;points=[];autosize=1;strokeColor=none;fillColor=none;" vertex="1" parent="1">
          <mxGeometry x="655" y="400" width="30" height="30" as="geometry" />
        </mxCell>
      </root>
    </mxGraphModel>
  </diagram>
</mxfile>
